HIERARCHY
ROOT Hips
{
 OFFSET 0.000000 0.000000 0.000000
 CHANNELS 6 Xposition Yposition Zposition Yrotation Xrotation Zrotation
 JOINT Chest
 {
  OFFSET 0.000000 9.585900 0.002600
  CHANNELS 3 Yrotation Xrotation Zrotation
  JOINT Chest2
  {
   OFFSET 0.000000 9.601200 -0.005300
   CHANNELS 3 Yrotation Xrotation Zrotation
   JOINT Chest3
   {
    OFFSET 0.000000 9.561800 0.000000
    CHANNELS 3 Yrotation Xrotation Zrotation
    JOINT Chest4
    {
     OFFSET 0.000000 9.552100 0.000000
     CHANNELS 3 Yrotation Xrotation Zrotation
     JOINT Neck
     {
      OFFSET 0.000000 14.453000 0.000000
      CHANNELS 3 Yrotation Xrotation Zrotation
      JOINT Head
      {
       OFFSET 0.000000 8.936500 -0.011300
       CHANNELS 3 Yrotation Xrotation Zrotation
       End Site
       {
        OFFSET 0.000000 17.073600 -0.006000
       }
      }
     }
     JOINT RightCollar
     {
      OFFSET -2.921100 9.558500 0.000000
      CHANNELS 3 Yrotation Xrotation Zrotation
      JOINT RightShoulder
      {
       OFFSET -13.519700 0.000000 0.000000
       CHANNELS 3 Yrotation Xrotation Zrotation
       JOINT RightElbow
       {
        OFFSET 0.000000 -29.696600 0.000000
        CHANNELS 3 Yrotation Xrotation Zrotation
        JOINT RightWrist
        {
         OFFSET 0.000000 -24.004700 0.000000
         CHANNELS 3 Yrotation Xrotation Zrotation
         End Site
         {
          OFFSET 0.000000 -17.728500 0.000000
         }
        }
       }
      }
     }
     JOINT LeftCollar
     {
      OFFSET 2.921100 9.558500 0.000000
      CHANNELS 3 Yrotation Xrotation Zrotation
      JOINT LeftShoulder
      {
       OFFSET 13.519700 0.000000 0.000000
       CHANNELS 3 Yrotation Xrotation Zrotation
       JOINT LeftElbow
       {
        OFFSET 0.000000 -29.696600 0.000000
        CHANNELS 3 Yrotation Xrotation Zrotation
        JOINT LeftWrist
        {
         OFFSET 0.000000 -24.004700 0.000000
         CHANNELS 3 Yrotation Xrotation Zrotation
         End Site
         {
          OFFSET 0.000000 -17.728500 0.000000
         }
        }
       }
      }
     }
    }
   }
  }
 }
 JOINT RightHip
 {
  OFFSET -7.771700 -0.012900 -0.001300
  CHANNELS 3 Yrotation Xrotation Zrotation
  JOINT RightKnee
  {
   OFFSET 0.000000 -40.869800 0.001200
   CHANNELS 3 Yrotation Xrotation Zrotation
   JOINT RightAnkle
   {
    OFFSET 0.000000 -39.717900 0.002100
    CHANNELS 3 Yrotation Xrotation Zrotation
    JOINT RightToe
    {
     OFFSET 0.000000 -4.965400 11.033500
     CHANNELS 3 Yrotation Xrotation Zrotation
     End Site
     {
      OFFSET 0.000000 -1.423100 5.872300
     }
    }
   }
  }
 }
 JOINT LeftHip
 {
  OFFSET 7.771700 -0.012900 -0.001300
  CHANNELS 3 Yrotation Xrotation Zrotation
  JOINT LeftKnee
  {
   OFFSET 0.000000 -40.869800 0.001200
   CHANNELS 3 Yrotation Xrotation Zrotation
   JOINT LeftAnkle
   {
    OFFSET 0.000000 -39.717900 0.002100
    CHANNELS 3 Yrotation Xrotation Zrotation
    JOINT LeftToe
    {
     OFFSET 0.000000 -4.965400 11.033500
     CHANNELS 3 Yrotation Xrotation Zrotation
     End Site
     {
      OFFSET 0.000000 -1.423100 5.872300
     }
    }
   }
  }
 }
}
MOTION
Frames: 15
Frame Time: 0.008333
-249.245503 60.676309 -78.952542 156.038022 -18.851375 2.852094 4.120292 12.357572 0.971021 0.253525 1.014327 0.074013 0.521564 1.645715 0.074558 3.740039 11.170470 0.771616 5.263976 18.098380 -0.296529 5.708290 -6.506789 -1.526695 5.581484 -0.169511 -3.585454 11.297524 -16.924131 -11.000992 -41.393442 -72.395199 52.473461 -2.805027 0.644231 -37.332013 -5.827499 1.174612 -3.772047 20.971874 -6.724985 2.162234 72.759510 -71.392556 -101.217624 -3.069801 -1.234285 4.041092 4.049940 -50.044192 2.266868 -23.763230 70.608301 -19.823306 -0.287930 -5.549366 -2.314643 -0.016826 0.022229 -0.080947 13.645412 -50.068092 -0.682066 29.008400 66.053044 29.377958 -14.864422 -14.858887 0.470507 -0.011339 -0.032966 -0.031249
-249.237729 60.670246 -78.940339 156.026975 -18.899729 2.848244 4.197968 12.356918 0.973359 0.297843 0.988415 0.047024 0.471689 1.684537 0.089465 3.816301 11.196679 0.785829 5.356884 18.125596 -0.111452 5.766871 -6.474741 -1.349929 5.691499 -0.294643 -3.566905 11.137957 -17.210753 -11.331551 -42.557889 -73.138767 53.927595 -2.538037 0.252445 -36.611499 -5.792088 1.129142 -3.700285 21.014368 -6.868852 2.020768 73.120463 -70.849428 -102.247024 -3.016380 -1.457308 3.818511 4.008475 -49.989541 2.241217 -23.714179 70.603753 -19.685412 -0.227199 -5.545643 -2.389724 -0.013174 0.027241 -0.077825 13.627017 -50.026207 -0.642201 28.988719 66.058301 29.362621 -14.857013 -14.869738 0.473135 0.058649 -0.010955 -0.024636
-249.226247 60.669006 -78.938771 156.047101 -19.029019 2.849979 4.252763 12.436542 0.979249 0.323283 0.984861 0.041764 0.454750 1.705370 0.085327 3.881214 11.221802 0.804468 5.434568 18.159003 0.055266 5.813406 -6.436083 -1.189178 5.775993 -0.387226 -3.565461 10.964376 -17.497166 -11.643043 -43.872728 -74.112351 55.490553 -2.183052 -0.131369 -35.845394 -5.784528 1.071203 -3.662319 21.058326 -7.016667 1.897001 73.728494 -70.443522 -103.445367 -2.974089 -1.661688 3.598240 3.957372 -49.852522 2.209756 -23.657267 70.608267 -19.573289 -0.184876 -5.541564 -2.418679 -0.018203 0.021279 -0.096386 13.571820 -49.902412 -0.597304 28.971789 66.059380 29.353230 -14.876158 -14.869537 0.472200 0.061654 -0.002178 -0.024039
-249.214918 60.666727 -78.930693 156.070417 -19.128478 2.843745 4.269824 12.510266 0.990988 0.375322 0.969126 0.043313 0.451898 1.713990 0.074753 3.953156 11.249386 0.829866 5.502580 18.196970 0.198850 5.854920 -6.392313 -1.050927 5.830621 -0.444138 -3.580238 10.807772 -17.792463 -11.955091 -45.533134 -75.202772 57.349610 -1.774682 -0.487478 -35.058726 -5.782075 1.005568 -3.651357 21.080210 -7.164691 1.795096 74.590064 -70.154318 -104.818081 -2.945599 -1.844846 3.380626 3.904365 -49.747317 2.184393 -23.608558 70.610631 -19.466493 -0.145468 -5.536220 -2.441940 -0.021286 0.016773 -0.120403 13.513746 -49.815462 -0.537388 28.944225 66.062291 29.330452 -14.930041 -14.858982 0.465781 0.041680 0.000066 -0.022390
-249.208116 60.664029 -78.918643 156.107281 -19.202103 2.853803 4.344468 12.526328 1.004380 0.358310 0.987593 0.044777 0.544574 1.704184 0.076864 3.927688 11.296362 0.852499 5.565378 18.238494 0.317134 5.896811 -6.344339 -0.938619 5.860033 -0.469245 -3.613100 10.686260 -18.099228 -12.275427 -47.694430 -76.297672 59.656957 -1.353160 -0.807600 -34.270927 -5.780916 0.939917 -3.662006 21.091538 -7.321315 1.718705 75.668628 -69.946145 -106.345671 -2.924958 -2.005653 3.161010 3.873216 -49.669892 2.129987 -23.521736 70.618505 -19.356016 -0.112779 -5.535105 -2.432175 -0.050653 0.020998 -0.135910 13.478549 -49.742834 -0.540372 28.942051 66.022956 29.349972 -14.985892 -14.828309 0.435549 0.009853 0.003063 -0.010897
-249.201925 60.660879 -78.901131 156.124931 -19.248595 2.863039 4.437036 12.519184 1.029895 0.342038 1.005696 0.045588 0.581948 1.709502 0.081099 3.955967 11.330002 0.875219 5.625719 18.283358 0.410713 5.941958 -6.292354 -0.852216 5.870093 -0.471030 -3.663726 10.602415 -18.415974 -12.601000 -50.434340 -77.306102 62.505516 -0.964745 -1.095290 -33.505822 -5.776130 0.879922 -3.686639 21.112159 -7.491869 1.666648 76.893371 -69.785213 -107.988964 -2.899383 -2.151625 2.933821 3.863967 -49.620232 2.068916 -23.450038 70.620159 -19.217177 -0.089168 -5.529265 -2.468495 -0.057952 0.029512 -0.120620 13.460985 -49.699385 -0.537536 28.927399 66.001426 29.346625 -15.055052 -14.806443 0.422332 0.086467 0.006558 0.006799
-249.190092 60.658816 -78.880822 156.137647 -19.298644 2.835922 4.516316 12.527082 1.091162 0.348360 1.012955 0.047473 0.592584 1.721285 0.084326 4.011833 11.357100 0.899684 5.684101 18.332768 0.483919 5.989902 -6.234965 -0.787071 5.866189 -0.457048 -3.723348 10.537331 -18.738225 -12.922627 -53.775782 -78.169019 65.949050 -0.653230 -1.346926 -32.789671 -5.771218 0.831771 -3.715530 21.159763 -7.676640 1.636578 78.191201 -69.643594 -109.704376 -2.864745 -2.291414 2.697644 3.819077 -49.569750 2.082973 -23.431036 70.607257 -19.135914 -0.072839 -5.509211 -2.505920 -0.048041 0.023808 -0.131717 13.403440 -49.661186 -0.483770 28.929239 65.977004 29.352581 -14.949499 -14.777390 0.422107 0.063924 0.004550 -0.012761
-249.178870 60.662124 -78.871784 156.161592 -19.418781 2.832425 4.532185 12.626881 1.113357 0.397318 1.001026 0.056988 0.602955 1.732325 0.087624 4.066450 11.381818 0.924404 5.741591 18.390022 0.540697 6.040977 -6.168409 -0.739252 5.853633 -0.431248 -3.784776 10.461364 -19.059247 -13.229026 -57.694654 -78.841918 69.998914 -0.444127 -1.555348 -32.134141 -5.768736 0.800649 -3.740398 21.239661 -7.867475 1.623648 79.531113 -69.504751 -111.475331 -2.822073 -2.426099 2.460496 3.789437 -49.446197 2.060167 -23.408839 70.604230 -19.055193 -0.062514 -5.494543 -2.544644 -0.041996 0.015970 -0.120435 13.352740 -49.548709 -0.447669 28.918709 65.967844 29.350749 -14.936092 -14.754031 0.424949 0.069895 -0.003196 -0.015067
-249.173045 60.665139 -78.858817 156.185252 -19.507183 2.843343 4.609792 12.665424 1.144058 0.380966 1.015901 0.054926 0.612704 1.742365 0.091035 4.117937 11.403590 0.949262 5.798602 18.457318 0.583377 6.095013 -6.090367 -0.706442 5.836495 -0.397547 -3.846322 10.345815 -19.369320 -13.511391 -62.086928 -79.290315 74.584621 -0.348122 -1.723259 -31.555209 -5.767712 0.785165 -3.760233 21.350357 -8.054045 1.628081 80.900317 -69.356875 -113.290306 -2.776986 -2.556552 2.227552 3.797185 -49.356205 1.979999 -23.353141 70.608881 -18.923815 -0.036117 -5.478336 -2.577574 -0.050274 0.014420 -0.099802 13.390635 -49.462590 -0.484552 28.848412 65.959188 29.330866 -15.002442 -14.732446 0.423810 0.044847 -0.008596 -0.011947
-249.168837 60.668467 -78.842719 156.203845 -19.577310 2.850289 4.685429 12.680997 1.176254 0.365680 1.031378 0.053232 0.621552 1.751332 0.094392 4.164666 11.422629 0.973520 5.855084 18.533743 0.614580 6.151323 -6.002001 -0.685811 5.822328 -0.358730 -3.907645 10.171357 -19.660350 -13.764208 -66.755194 -79.497940 79.528003 -0.358473 -1.856270 -31.077608 -5.761955 0.778355 -3.779176 21.487642 -8.230862 1.657154 82.271427 -69.187897 -115.120446 -2.735398 -2.680333 1.995908 3.816182 -49.285578 1.906121 -23.318177 70.605333 -18.816482 -0.011285 -5.455155 -2.597562 -0.054077 0.007564 -0.104421 13.420869 -49.388350 -0.512753 28.786457 65.930074 29.311420 -15.059890 -14.707922 0.410949 0.013024 -0.008148 -0.004662
-249.165928 60.670809 -78.819764 156.203088 -19.607676 2.847484 4.755882 12.663326 1.210984 0.370206 1.036227 0.055092 0.609251 1.769012 0.093319 4.166658 11.440124 0.982704 5.969063 18.607235 0.640937 6.208569 -5.905279 -0.674869 5.871425 -0.322085 -3.966444 9.932610 -19.931256 -13.983357 -71.446189 -79.465755 84.576287 -0.450492 -1.955578 -30.703747 -5.690547 0.767000 -3.791836 21.643418 -8.394915 1.713099 83.629578 -68.992519 -116.950804 -2.696101 -2.795175 1.775426 3.839131 -49.252334 1.843342 -23.258915 70.582140 -18.655870 0.010363 -5.415182 -2.659701 -0.044586 0.002469 -0.093711 13.479482 -49.352629 -0.537694 28.691576 65.897834 29.268129 -15.139216 -14.689732 0.407364 0.067478 0.003038 0.005497
-249.164885 60.676446 -78.802604 156.183099 -19.671550 2.870251 4.802745 12.704344 1.214161 0.372253 1.038486 0.055998 0.592806 1.782502 0.090610 4.288640 11.418924 1.020199 5.989947 18.701767 0.652821 6.263626 -5.801175 -0.671516 5.836431 -0.257260 -4.033474 9.631265 -20.184186 -14.165248 -75.907368 -79.217992 89.467459 -0.596165 -2.026341 -30.429150 -5.699646 0.776748 -3.811929 21.808287 -8.548414 1.795312 84.957077 -68.765373 -118.763426 -2.656116 -2.899611 1.571253 3.941924 -49.193103 1.708392 -23.153428 70.599131 -18.460782 0.086312 -5.394673 -2.662335 -0.115588 -0.001908 -0.120383 13.585763 -49.275756 -0.590131 28.581854 65.862886 29.213864 -15.202353 -14.663685 0.400266 0.118067 0.007894 0.019187
-249.159947 60.685588 -78.790421 156.239220 -19.783586 2.855949 4.827308 12.745739 1.251495 0.327349 1.081786 0.049700 0.687837 1.730986 0.109800 4.280369 11.454382 1.038809 6.007743 18.806805 0.657799 6.314535 -5.687546 -0.674058 5.807905 -0.174945 -4.097460 9.276565 -20.415315 -14.309709 -79.966342 -78.799649 94.017889 -0.770939 -2.082775 -30.249869 -5.697455 0.802436 -3.830276 21.978066 -8.695832 1.902726 86.219108 -68.499566 -120.524236 -2.613418 -2.994236 1.374294 3.892202 -49.079248 1.693383 -23.132620 70.591689 -18.414965 0.091712 -5.369504 -2.663415 -0.117970 -0.018900 -0.125586 13.607588 -49.154341 -0.610552 28.441117 65.823710 29.137647 -15.272769 -14.643433 0.402823 0.181252 0.021531 0.029415
-249.163320 60.693246 -78.772706 156.285490 -19.848541 2.878925 4.848337 12.737340 1.244842 0.318622 1.104602 0.049830 0.673348 1.745634 0.110148 4.313480 11.447121 1.055341 6.045767 18.917784 0.659017 6.358106 -5.560493 -0.681257 5.811230 -0.084526 -4.151099 8.887913 -20.615739 -14.418772 -83.601510 -78.266161 98.189887 -0.955298 -2.136588 -30.146809 -5.656483 0.837608 -3.841693 22.154785 -8.838700 2.030350 87.371256 -68.194071 -122.195102 -2.569751 -3.088125 1.181679 3.940341 -49.014908 1.562761 -23.035038 70.592531 -18.248333 0.099204 -5.338431 -2.676705 -0.128653 -0.030300 -0.125804 13.641656 -49.075157 -0.664815 28.333697 65.780292 29.065042 -15.409025 -14.602184 0.398034 0.141377 0.014967 0.041143
-249.168225 60.701275 -78.753497 156.317547 -19.906474 2.917886 4.861938 12.732286 1.215082 0.366818 1.065351 0.060730 0.600584 1.823017 0.105605 4.357728 11.428105 1.067288 6.071900 19.039480 0.654746 6.389959 -5.421951 -0.691493 5.816061 0.013280 -4.196186 8.487942 -20.778544 -14.496436 -86.906999 -77.671977 102.049491 -1.132880 -2.191624 -30.095754 -5.608081 0.882644 -3.848133 22.345622 -8.981656 2.171862 88.368438 -67.850342 -123.741045 -2.526783 -3.184516 0.989764 4.080173 -48.962623 1.356454 -22.980798 70.595412 -18.084502 0.129389 -5.295545 -2.678386 -0.158067 -0.048900 -0.136233 13.702990 -48.998455 -0.735083 28.242664 65.735818 29.006175 -15.543580 -14.563325 0.392514 0.099232 0.006503 0.043951
